<svg xmlns="http://www.w3.org/2000/svg" width="212.99" height="49.664" viewBox="0 0 212.99 49.664">
  <g id="Group_8183" data-name="Group 8183" transform="translate(-2930.01 -84)">
    <path id="Path_7923" data-name="Path 7923" d="M12.708-13.842V1.782h1.368V-13.842ZM3.654-3.474h-.5v-7.938H9.018v-1.152H1.764V-2.322H3.69a36.1,36.1,0,0,0,6.948-.558l-.18-1.1A38.073,38.073,0,0,1,3.654-3.474Zm25.47,5.256h1.368V-13.842H29.124ZM18.018-2.574h7.506V-12.6H18.018ZM19.35-3.708v-7.758h4.824v7.758Zm25.506-7.506A35.875,35.875,0,0,1,44.1-3.87l1.332.216a36.761,36.761,0,0,0,.774-7.614v-1.278H35.352v1.17h9.5ZM40.626-1.152V-6.93h-1.35v5.778h-5.76V0H48.2V-1.152Zm21.4-12.69V-1.98h1.386V-13.842ZM54.594-4.878a3.9,3.9,0,0,0,4.14-4.1,3.906,3.906,0,0,0-4.14-4.122,3.9,3.9,0,0,0-4.14,4.122A3.892,3.892,0,0,0,54.594-4.878Zm0-1.134a2.514,2.514,0,0,1-2.7-2.592V-9.36a2.519,2.519,0,0,1,2.7-2.61,2.5,2.5,0,0,1,2.682,2.61V-8.6A2.5,2.5,0,0,1,54.594-6.012Zm-.288,8.136h9.432V.99H54.792V-3.276H53.406V1.206A.821.821,0,0,0,54.306,2.124ZM73.692-8.064c3.744,0,5.4-1.242,5.4-2.9s-1.656-2.88-5.4-2.88-5.4,1.224-5.4,2.88S69.948-8.064,73.692-8.064Zm0-1.044c-2.79,0-3.942-.792-3.942-1.764v-.2c0-.954,1.152-1.764,3.942-1.764s3.942.81,3.942,1.764v.2C77.634-9.9,76.482-9.108,73.692-9.108ZM66.348-6.822V-5.67H81.036V-6.822ZM69.534,2.52H79.29V1.4H69.948V-.306h8.874V-4.158h-10.3v1.116h8.982V-1.35H68.634V1.6A.821.821,0,0,0,69.534,2.52Zm29.9-16.362V1.782h1.35V-13.842ZM92.574-6.714c2.448,0,4.248-1.26,4.248-3.312,0-2.034-1.8-3.294-4.248-3.294-2.466,0-4.266,1.26-4.266,3.294C88.308-7.974,90.108-6.714,92.574-6.714ZM89.712-10.17c0-1.26,1.17-2.052,2.862-2.052,1.656,0,2.826.792,2.826,2.052v.324c0,1.242-1.17,2.034-2.826,2.034-1.692,0-2.862-.792-2.862-2.034ZM98.136-5.6A80.806,80.806,0,0,1,87.408-5l.108,1.152c1.476,0,2.988-.036,4.428-.09v5.58h1.368V-4.014c1.836-.108,3.546-.288,4.95-.5ZM116.46-8.5v-5.346h-1.368V-1.8h1.368V-7.344h2.5V-8.5Zm-5.49-4.86h-4.806V-12.2h4.806Zm1.206,6.75a2.517,2.517,0,0,0-1.62-2.466v-.09h2.736V-10.3h-9.756v1.134h2.808v.09a2.517,2.517,0,0,0-1.62,2.466c0,1.71,1.458,2.934,3.726,2.934S112.176-4.9,112.176-6.606Zm-6.156-.306a2.045,2.045,0,0,1,2.286-2.106h.306A2.054,2.054,0,0,1,110.9-6.912a2.059,2.059,0,0,1-2.286,2.088h-.306A2.05,2.05,0,0,1,106.02-6.912Zm2,4.608H106.65V1.3a.821.821,0,0,0,.9.918h9.27V1.08h-8.8ZM137.484-9.81v-4.032h-1.368v9.4h1.368V-8.658h2.5V-9.81ZM129.15-8.226a.365.365,0,0,1,.5.018l3.42,2.916,1.008-.882-3.366-2.79a.607.607,0,0,0-.81-.036l-.27.216-.108-.072a5.426,5.426,0,0,0,.63-2.646v-.234h3.42V-12.87h-8.226v1.134h3.438v.162c0,2.142-1.008,3.42-3.906,5.706L125.892-5A18.317,18.317,0,0,0,129.15-8.226ZM132.642-4.1c-3.312,0-4.986,1.476-4.986,3.384s1.674,3.384,4.986,3.384c3.33,0,4.968-1.476,4.968-3.384S135.972-4.1,132.642-4.1Zm3.546,3.546c0,1.08-.99,2.142-3.546,2.142C130.1,1.584,129.1.522,129.1-.558V-.864c0-1.1,1.008-2.16,3.546-2.16,2.556,0,3.546,1.062,3.546,2.16Zm17.1-13.284v5.724h-3.222v1.152h3.222V1.782h1.35V-13.842ZM144.2-3.186H143.6V-6.93H149V-8.046h-5.4V-11.52h5.724v-1.134h-7.074V-2.07h1.89a34.761,34.761,0,0,0,6.822-.54l-.162-1.1A35.581,35.581,0,0,1,144.2-3.186Z" transform="translate(2955 131)" fill="#656565"/>
    <path id="Path_7922" data-name="Path 7922" d="M2.01,0H9.54C16.62,0,21.6-4.29,21.6-10.32S16.62-20.61,9.54-20.61H2.01ZM7.14-4.65V-15.96h3.18c3.51,0,6.03,2.34,6.03,5.64s-2.52,5.67-6.03,5.67ZM25.41,0h5.13V-20.61H25.41Zm9.72,0h5.13V-11.94L46.2-1.2l5.94-10.74V0h5.13V-20.61H52.14L46.2-9.87,40.26-20.61H35.13ZM61.89,0h5.13V-20.61H61.89Zm9.72,0h5.13V-11.94L82.68-1.2l5.94-10.74V0h5.13V-20.61H88.62L82.68-9.87,76.74-20.61H71.61Zm41.28,0h5.76l-8.16-20.61h-5.76L96.57,0h5.76l1.2-3h8.16Zm-7.77-7.02,2.49-6.33,2.49,6.33ZM139.38,0,134.4-7.08a6.78,6.78,0,0,0,4.38-6.45c0-4.17-3.3-7.08-7.83-7.08h-9.57V0h5.13V-6.45h2.52L133.56,0ZM126.51-15.93h3.96c1.77,0,3.03.96,3.03,2.4s-1.26,2.4-3.03,2.4h-3.96ZM142.68,0h5.13V-5.61l2.37-2.55L155.97,0h6.18l-8.43-11.85,7.83-8.76h-6.09l-7.65,8.79v-8.79h-5.13Zm38.13-16.02v-4.59H164.58V0h16.23V-4.59h-11.1V-8.22h10.08v-4.59H169.71v-3.21ZM189.72,0h5.13V-16.02h6.24v-4.59H183.45v4.59h6.27Z" transform="translate(2928 105)" fill="#3b3b3b"/>
    <circle id="Ellipse_1" data-name="Ellipse 1" cx="5" cy="5" r="5" transform="translate(3133 84)" fill="#f23176"/>
  </g>
</svg>
