<svg xmlns="http://www.w3.org/2000/svg" width="212.99" height="21" viewBox="0 0 212.99 21">
  <g id="Group_8184" data-name="Group 8184" transform="translate(-2930.01 40)">
    <path id="Path_7924" data-name="Path 7924" d="M2.01,0H9.54C16.62,0,21.6-4.29,21.6-10.32S16.62-20.61,9.54-20.61H2.01ZM7.14-4.65V-15.96h3.18c3.51,0,6.03,2.34,6.03,5.64s-2.52,5.67-6.03,5.67ZM25.41,0h5.13V-20.61H25.41Zm9.72,0h5.13V-11.94L46.2-1.2l5.94-10.74V0h5.13V-20.61H52.14L46.2-9.87,40.26-20.61H35.13ZM61.89,0h5.13V-20.61H61.89Zm9.72,0h5.13V-11.94L82.68-1.2l5.94-10.74V0h5.13V-20.61H88.62L82.68-9.87,76.74-20.61H71.61Zm41.28,0h5.76l-8.16-20.61h-5.76L96.57,0h5.76l1.2-3h8.16Zm-7.77-7.02,2.49-6.33,2.49,6.33ZM139.38,0,134.4-7.08a6.78,6.78,0,0,0,4.38-6.45c0-4.17-3.3-7.08-7.83-7.08h-9.57V0h5.13V-6.45h2.52L133.56,0ZM126.51-15.93h3.96c1.77,0,3.03.96,3.03,2.4s-1.26,2.4-3.03,2.4h-3.96ZM142.68,0h5.13V-5.61l2.37-2.55L155.97,0h6.18l-8.43-11.85,7.83-8.76h-6.09l-7.65,8.79v-8.79h-5.13Zm38.13-16.02v-4.59H164.58V0h16.23V-4.59h-11.1V-8.22h10.08v-4.59H169.71v-3.21ZM189.72,0h5.13V-16.02h6.24v-4.59H183.45v4.59h6.27Z" transform="translate(2928 -19)" fill="#3b3b3b"/>
    <circle id="Ellipse_1" data-name="Ellipse 1" cx="5" cy="5" r="5" transform="translate(3133 -40)" fill="#f23176"/>
  </g>
</svg>